<svg xmlns="http://www.w3.org/2000/svg" width="26.943" height="34.09" viewBox="0 0 26.943 34.09"><path d="M13.62.017,13.472,0,0,1.412V26.073L13.472,34.09,26.9,26.1l.042-.026V1.412Zm11.4,12.11L13.495,5.334v-.1l-.087.05-.088-.056v.109L1.925,12.118V3.147L13.472,1.935,25.019,3.147ZM13.4,6.787,24.923,13.5l-4.479,2.64-7.093-4.221-.013,1.415,5.9,3.513-.86.507-5.031-2.992-.013,1.415,3.827,2.275-.782.523-3.032-1.787L13.338,18.2l1.852,1.091-1.8,1.081L2.034,13.622Zm-11.48,8.34,11.411,6.791.015,1.044L5.41,18.234,5.395,19.65l7.979,4.8.017,1.076L5.419,20.781,5.406,22.2l8.021,4.821.045.026,8.143-4.872V20.9l-.011-.148V16.994l3.415-2.036v10.02L13.472,31.85,1.925,24.979Z"/></svg>
